<svg width="27" height="22" viewBox="0 0 27 22" fill="none" xmlns="http://www.w3.org/2000/svg">
<path fill-rule="evenodd" clip-rule="evenodd" d="M0.166504 5.66658C0.166504 2.72107 2.55432 0.333252 5.49984 0.333252H21.4998C24.4454 0.333252 26.8332 2.72107 26.8332 5.66658V16.3333C26.8332 19.2788 24.4454 21.6666 21.4998 21.6666H5.49984C2.55432 21.6666 0.166504 19.2788 0.166504 16.3333V5.66658ZM5.49984 2.99992C4.02708 2.99992 2.83317 4.19383 2.83317 5.66658V16.3333C2.83317 17.806 4.02708 18.9999 5.49984 18.9999H21.4998C22.9726 18.9999 24.1665 17.806 24.1665 16.3333V5.66658C24.1665 4.19383 22.9726 2.99992 21.4998 2.99992H5.49984Z" fill="white"/>
</svg>
