<svg width="25" height="24" viewBox="0 0 25 24" fill="none" xmlns="http://www.w3.org/2000/svg">
<path d="M17.8766 0H7.12295C3.47106 0 0.5 2.9712 0.5 6.62309V17.3768C0.5 21.0288 3.47106 23.9999 7.12295 23.9999H17.8766C21.5288 23.9999 24.4999 21.0287 24.4999 17.3768V6.62309C24.5 2.9712 21.5288 0 17.8766 0ZM22.3706 17.3768C22.3706 19.8547 20.3547 21.8705 17.8768 21.8705H7.12295C4.6452 21.8706 2.62938 19.8547 2.62938 17.3768V6.62309C2.62938 4.14534 4.6452 2.12938 7.12295 2.12938H17.8766C20.3545 2.12938 22.3705 4.14534 22.3705 6.62309V17.3768H22.3706Z" fill="white"/>
<path d="M12.4998 5.81616C9.08983 5.81616 6.31567 8.59032 6.31567 12.0003C6.31567 15.4102 9.08983 18.1842 12.4998 18.1842C15.9098 18.1842 18.684 15.4102 18.684 12.0003C18.684 8.59032 15.9098 5.81616 12.4998 5.81616ZM12.4998 16.0547C10.2641 16.0547 8.44506 14.2359 8.44506 12.0002C8.44506 9.76432 10.264 7.9454 12.4998 7.9454C14.7357 7.9454 16.5546 9.76432 16.5546 12.0002C16.5546 14.2359 14.7355 16.0547 12.4998 16.0547Z" fill="white"/>
<path d="M18.9434 4.0105C18.5331 4.0105 18.1301 4.17659 17.8404 4.46761C17.5492 4.7572 17.3818 5.16037 17.3818 5.57205C17.3818 5.98245 17.5493 6.38547 17.8404 6.67649C18.13 6.96608 18.5331 7.13359 18.9434 7.13359C19.3551 7.13359 19.7568 6.96608 20.0478 6.67649C20.3388 6.38547 20.5049 5.98231 20.5049 5.57205C20.5049 5.16037 20.3388 4.7572 20.0478 4.46761C19.7582 4.17659 19.3551 4.0105 18.9434 4.0105Z" fill="white"/>
</svg>
