<svg width="76" height="75" viewBox="0 0 76 75" fill="none" xmlns="http://www.w3.org/2000/svg">
<path d="M54.8022 0H21.1968C9.78459 0 0.5 9.28504 0.5 20.6972V54.3026C0.5 65.7153 9.78459 74.9999 21.1968 74.9999H54.8022C66.2153 74.9999 75.4999 65.7148 75.4999 54.3026V20.6972C75.5003 9.28504 66.2153 0 54.8022 0ZM68.846 54.3026C68.846 62.0461 62.5461 68.3455 54.8026 68.3455H21.1968C13.4538 68.3459 7.15435 62.0461 7.15435 54.3026V20.6972C7.15435 12.9542 13.4538 6.65435 21.1968 6.65435H54.8022C62.5456 6.65435 68.8455 12.9542 68.8455 20.6972L68.846 54.3026Z" fill="white"/>
<path d="M37.9994 18.1752C27.3431 18.1752 18.6738 26.8445 18.6738 37.5007C18.6738 48.1566 27.3431 56.8254 37.9994 56.8254C48.6557 56.8254 57.325 48.1566 57.325 37.5007C57.325 26.8445 48.6557 18.1752 37.9994 18.1752ZM37.9994 50.1706C31.0128 50.1706 25.3282 44.4869 25.3282 37.5003C25.3282 30.5132 31.0123 24.8291 37.9994 24.8291C44.9865 24.8291 50.6706 30.5132 50.6706 37.5003C50.6706 44.4869 44.986 50.1706 37.9994 50.1706Z" fill="white"/>
<path d="M58.136 12.5328C56.8539 12.5328 55.5944 13.0519 54.689 13.9613C53.7791 14.8663 53.2561 16.1262 53.2561 17.4127C53.2561 18.6952 53.7796 19.9547 54.689 20.8641C55.594 21.7691 56.8539 22.2926 58.136 22.2926C59.4225 22.2926 60.6779 21.7691 61.5874 20.8641C62.4968 19.9547 63.0158 18.6948 63.0158 17.4127C63.0158 16.1262 62.4968 14.8663 61.5874 13.9613C60.6824 13.0519 59.4225 12.5328 58.136 12.5328Z" fill="white"/>
</svg>
