<svg width="76" height="75" viewBox="0 0 76 75" fill="none" xmlns="http://www.w3.org/2000/svg">
<path fill-rule="evenodd" clip-rule="evenodd" d="M6.75 25C6.75 18.0964 12.3464 12.5 19.25 12.5H56.75C63.6536 12.5 69.25 18.0964 69.25 25V50C69.25 56.9036 63.6536 62.5 56.75 62.5H19.25C12.3464 62.5 6.75 56.9036 6.75 50V25ZM19.25 18.75C15.7982 18.75 13 21.5482 13 25V50C13 53.4518 15.7982 56.25 19.25 56.25H56.75C60.2018 56.25 63 53.4518 63 50V25C63 21.5482 60.2018 18.75 56.75 18.75H19.25Z" fill="#A4031F"/>
<path fill-rule="evenodd" clip-rule="evenodd" d="M19.9349 26.1728C21.0131 24.8251 22.9796 24.6066 24.3273 25.6848L38.0001 36.623L51.6729 25.6848C53.0206 24.6066 54.9872 24.8251 56.0653 26.1728C57.1435 27.5205 56.925 29.4871 55.5773 30.5652L38.0001 44.6269L20.4229 30.5652C19.0752 29.4871 18.8567 27.5205 19.9349 26.1728Z" fill="#A4031F"/>
</svg>
