<svg width="26" height="21" viewBox="0 0 26 21" fill="none" xmlns="http://www.w3.org/2000/svg">
<path fill-rule="evenodd" clip-rule="evenodd" d="M0 5.25C0 2.35051 2.32812 0 5.2 0H20.8C23.6719 0 26 2.35051 26 5.25V15.75C26 18.6495 23.6719 21 20.8 21H5.2C2.32812 21 0 18.6495 0 15.75V5.25ZM5.2 2.625C3.76406 2.625 2.6 3.80025 2.6 5.25V15.75C2.6 17.1997 3.76406 18.375 5.2 18.375H20.8C22.2359 18.375 23.4 17.1997 23.4 15.75V5.25C23.4 3.80025 22.2359 2.625 20.8 2.625H5.2Z" fill="white"/>
<path fill-rule="evenodd" clip-rule="evenodd" d="M5.29222 6.47809C5.75223 5.92877 6.59128 5.83971 7.1663 6.27917L13 10.7376L18.8337 6.27917C19.4087 5.83971 20.2478 5.92877 20.7078 6.47809C21.1678 7.02741 21.0746 7.82897 20.4995 8.26843L13 14L5.50045 8.26843C4.92544 7.82897 4.83221 7.02741 5.29222 6.47809Z" fill="white"/>
</svg>
