<svg width="54" height="54" viewBox="0 0 54 54" fill="none" xmlns="http://www.w3.org/2000/svg">
<path fill-rule="evenodd" clip-rule="evenodd" d="M9.27624 0.681499C16.8331 -1.83907 24.4695 2.89454 26.5907 10.5584C28.036 15.7808 26.6672 21.2567 23.3293 25.0064C24.0129 25.8918 24.7599 26.7431 25.5708 27.5546C26.3778 28.3622 27.224 29.1064 28.1039 29.7878C31.8522 26.4235 37.3447 25.0393 42.5821 26.491C50.2445 28.6148 54.9693 36.2572 52.4526 43.8137C50.8014 48.7717 47.7225 51.7841 43.6161 52.7757C39.8005 53.697 35.6864 52.7176 32.058 51.2093C24.7499 48.1713 17.5338 42.1873 14.2381 38.8892C10.8647 35.5133 4.90654 28.2867 1.89615 20.9924C0.401253 17.3702 -0.561285 13.2715 0.362201 9.47339C1.35574 5.38717 4.3528 2.3236 9.27624 0.681499ZM20.5671 12.2256C19.2774 7.56591 14.9923 5.36341 11.2538 6.61039C7.96757 7.70644 6.82776 9.33576 6.43526 10.95C5.97272 12.8524 6.37494 15.4617 7.67347 18.6081C10.2499 24.8509 15.5933 31.4033 18.6592 34.4715C21.6508 37.4654 28.1963 42.8355 34.4571 45.4381C37.613 46.75 40.2351 47.1624 42.1491 46.7003C43.7722 46.3084 45.4161 45.1619 46.5228 41.8388C47.7709 38.0915 45.5647 33.8033 40.9127 32.5139C37.4505 31.5543 33.8911 32.6661 31.7726 34.9348C30.4047 36.3999 27.7971 37.2351 25.5785 35.6865C24.0175 34.5968 22.535 33.3586 21.1498 31.9724C19.7624 30.584 18.5236 29.0979 17.4339 27.5334C15.895 25.3243 16.7161 22.7268 18.1706 21.3557C20.4225 19.2326 21.5234 15.6808 20.5671 12.2256Z" fill="#A4031F"/>
</svg>
