<svg width="23" height="23" viewBox="0 0 23 23" fill="none" xmlns="http://www.w3.org/2000/svg">
<path fill-rule="evenodd" clip-rule="evenodd" d="M3.95786 0.290773C7.18212 -0.78467 10.4403 1.235 11.3453 4.50493C11.962 6.73312 11.378 9.06955 9.95383 10.6694C10.2455 11.0472 10.5642 11.4104 10.9102 11.7566C11.2545 12.1012 11.6156 12.4187 11.991 12.7094C13.5903 11.274 15.9337 10.6834 18.1684 11.3028C21.4376 12.209 23.4536 15.4697 22.3798 18.6938C21.6753 20.8093 20.3616 22.0946 18.6095 22.5176C16.9815 22.9107 15.2262 22.4929 13.6781 21.8493C10.56 20.5531 7.48107 17.9999 6.07493 16.5927C4.6356 15.1523 2.09346 12.069 0.809023 8.95676C0.171202 7.4113 -0.239482 5.66251 0.154539 4.04198C0.578449 2.29853 1.85719 0.991403 3.95786 0.290773ZM8.77529 5.21624C8.22504 3.22812 6.39673 2.28839 4.80162 2.82043C3.3995 3.28808 2.91318 3.98326 2.74571 4.67201C2.54836 5.48368 2.71997 6.59699 3.27401 7.93944C4.3733 10.6031 6.65315 13.3987 7.96125 14.7078C9.23769 15.9852 12.0304 18.2765 14.7017 19.3869C16.0482 19.9467 17.167 20.1226 17.9836 19.9255C18.6761 19.7582 19.3776 19.2691 19.8497 17.8512C20.3822 16.2524 19.441 14.4228 17.4561 13.8726C15.9789 13.4632 14.4602 13.9375 13.5563 14.9055C12.9727 15.5306 11.8601 15.887 10.9135 15.2262C10.2475 14.7613 9.61493 14.233 9.02391 13.6416C8.43195 13.0492 7.90342 12.4151 7.43845 11.7476C6.78188 10.805 7.13222 9.69678 7.75278 9.11175C8.71362 8.20591 9.18331 6.69049 8.77529 5.21624Z" fill="white"/>
</svg>
